<svg width="1402" height="367" viewBox="0 0 1402 367" fill="none" xmlns="http://www.w3.org/2000/svg">
<path d="M1 186.324C1 186.324 140.391 181.409 197.405 198.71C254.616 216.207 254.616 294.455 301.997 289.54C337.975 285.608 435.096 260.443 474.81 284.428C581.761 349.11 649.195 183.375 700.705 204.608C785.244 239.406 658.436 362.872 900.452 366.214C980.469 367.197 954.714 220.336 1019.79 220.336C1142.47 220.336 1201.25 188.88 1401 188.88" stroke="url(#paint0_linear_395_2)" stroke-miterlimit="10"/>
<path d="M1 186.52C1 186.52 138.031 181.802 195.242 197.727C252.453 213.652 256.975 283.052 306.126 278.727C344.66 275.581 435.096 254.741 476.383 277.154C583.531 335.151 647.426 174.921 700.902 195.761C785.637 228.593 662.564 351.862 897.7 354.418C975.554 355.401 960.416 213.258 1025.69 213.848C1146.2 215.028 1200.86 189.47 1401 188.88" stroke="url(#paint1_linear_395_2)" stroke-miterlimit="10"/>
<path d="M1 186.717C1 186.717 135.672 182.392 192.883 196.743C250.094 211.095 259.334 271.452 310.451 268.11C351.344 265.357 435.096 249.039 477.956 269.683C585.103 321.389 645.46 166.467 701.295 186.913C786.227 217.78 666.693 340.852 895.144 342.818C970.443 343.605 966.314 206.18 1031.78 207.36C1149.74 209.719 1200.66 190.059 1401 188.879" stroke="url(#paint2_linear_395_2)" stroke-miterlimit="10"/>
<path d="M1 186.717C1 186.717 133.509 182.982 190.721 195.761C247.932 208.737 261.497 260.05 314.776 257.297C358.029 255.134 434.9 243.142 479.528 262.212C586.283 307.627 643.494 158.013 701.688 178.067C786.62 207.164 671.018 329.843 892.588 331.219C965.528 331.613 972.015 199.103 1037.68 201.069C1153.48 204.411 1200.27 190.649 1401 188.88" stroke="url(#paint3_linear_395_2)" stroke-miterlimit="10"/>
<path d="M1 186.914C1 186.914 131.15 183.572 188.361 194.778C245.572 206.181 263.856 248.647 318.905 246.681C364.713 244.911 434.703 237.44 481.101 254.741C587.266 294.258 641.528 149.756 702.081 169.22C787.013 196.547 675.147 318.834 889.836 319.62C960.612 319.817 977.717 192.222 1043.58 194.581C1157.21 198.907 1199.88 191.239 1401 188.88" stroke="url(#paint4_linear_395_2)" stroke-miterlimit="10"/>
<path d="M1 187.11C1 187.11 128.988 183.965 186.199 193.795C243.41 203.625 266.216 237.244 323.23 235.867C371.397 234.884 434.31 231.739 482.674 247.27C588.052 281.086 639.562 141.302 702.278 160.372C787.406 186.127 679.276 308.02 887.28 307.824C955.697 308.02 983.418 185.144 1049.67 188.29C1160.95 193.598 1199.68 191.829 1401 188.88" stroke="url(#paint5_linear_395_2)" stroke-miterlimit="10"/>
<path d="M1 187.307C1 187.307 126.628 184.555 183.839 192.812C241.051 201.266 268.575 225.841 327.359 225.251C378.082 224.661 433.917 226.038 484.247 239.8C588.642 268.307 637.596 133.045 702.671 151.526C787.8 175.511 683.601 297.011 884.724 296.224C950.782 296.028 989.316 178.067 1055.57 181.802C1164.49 188.094 1199.29 192.419 1401 188.88" stroke="url(#paint6_linear_395_2)" stroke-miterlimit="10"/>
<path d="M1 187.504C1 187.504 124.466 185.144 181.677 192.025C238.888 198.71 270.737 213.652 331.684 214.635C384.766 215.224 433.327 220.533 485.82 232.329C589.035 255.724 635.63 124.788 703.064 142.678C787.996 165.091 687.729 286.001 882.168 284.625C945.671 284.232 995.018 170.792 1061.67 175.314C1168.22 182.588 1198.89 193.008 1401 188.88" stroke="url(#paint7_linear_395_2)" stroke-miterlimit="10"/>
<path d="M1 187.7C1 187.7 122.107 185.734 179.318 191.042C236.529 196.351 273.097 203.232 336.009 203.822C391.451 204.411 432.737 215.028 487.196 224.858C589.232 243.338 633.664 116.53 703.458 133.831C788.389 154.868 691.858 274.991 879.416 272.829C940.756 272.239 1000.72 163.715 1067.56 169.023C1171.96 177.084 1198.7 193.598 1401 188.88" stroke="url(#paint8_linear_395_2)" stroke-miterlimit="10"/>
<path d="M1 187.7C1 187.7 119.944 186.127 177.155 190.059C234.17 193.795 275.456 191.829 340.138 193.205C398.135 194.385 432.147 209.523 488.769 217.387C589.429 231.149 631.501 108.273 703.654 124.984C788.586 144.448 696.183 263.981 876.86 261.229C935.841 260.443 1006.42 156.637 1073.66 162.535C1175.69 171.579 1198.3 194.385 1401 188.88" stroke="url(#paint9_linear_395_2)" stroke-miterlimit="10"/>
<path d="M1 187.897C1 187.897 117.585 186.717 174.796 189.076C232.007 191.239 277.815 180.426 344.463 182.392C404.82 184.162 434.507 190.256 490.341 209.916C584.317 242.945 629.535 100.016 704.047 116.137C788.979 134.225 700.312 252.972 874.304 249.63C930.926 248.647 1012.32 149.56 1079.56 156.047C1179.23 165.878 1198.11 194.975 1401 188.88" stroke="url(#paint10_linear_395_2)" stroke-miterlimit="10"/>
<path d="M1 188.093C1 188.093 115.422 187.307 172.437 188.093C229.648 188.88 279.978 169.023 348.788 171.775C411.504 174.135 433.327 184.555 491.914 202.445C585.497 231.149 627.569 91.9552 704.441 107.29C789.176 124.001 704.441 241.962 871.552 237.834C925.814 236.654 1018.02 142.285 1085.45 149.756C1182.97 160.372 1197.71 195.564 1401 188.88" stroke="url(#paint11_linear_395_2)" stroke-miterlimit="10"/>
<path d="M1 188.29C1 188.29 113.063 187.896 170.274 187.11C227.485 186.324 282.337 157.816 352.917 160.962C418.189 163.911 432.147 179.246 493.487 194.974C586.676 218.959 625.407 83.8942 704.637 98.4427C789.372 113.974 708.766 231.149 868.996 226.234C920.899 224.858 1023.72 135.207 1091.55 143.268C1186.7 154.671 1197.32 196.154 1401 188.879" stroke="url(#paint12_linear_395_2)" stroke-miterlimit="10"/>
<path d="M1 188.487C1 188.487 110.704 188.29 167.915 186.127C225.126 183.768 284.696 146.414 357.242 150.346C424.873 153.885 430.771 174.135 495.06 187.504C587.856 206.771 623.441 75.8339 705.03 89.596C789.766 103.751 712.894 220.139 866.44 214.635C915.984 213.062 1029.42 127.933 1097.45 136.977C1190.44 148.97 1197.12 196.744 1401 188.88" stroke="url(#paint13_linear_395_2)" stroke-miterlimit="10"/>
<path d="M1 188.487C1 188.487 108.541 188.88 165.752 185.144C222.963 181.409 287.055 135.011 361.371 139.533C431.558 143.858 429.395 169.809 496.633 180.033C589.035 194.385 621.278 67.7733 705.424 80.749C789.962 93.7247 717.22 209.13 863.884 203.035C911.069 201.069 1035.32 120.856 1103.54 130.489C1193.98 143.465 1196.73 197.334 1401 188.88" stroke="url(#paint14_linear_395_2)" stroke-miterlimit="10"/>
<path d="M1 188.684C1 188.684 106.182 189.47 163.393 184.162C220.604 178.853 289.218 123.805 365.696 128.917C438.242 133.635 428.215 179.836 498.205 172.562C590.018 163.125 619.312 59.7128 705.817 71.9021C790.159 83.6982 721.348 198.12 861.132 191.239C906.154 189.273 1041.02 113.582 1109.44 124.002C1197.71 137.567 1196.34 197.924 1401 188.88" stroke="url(#paint15_linear_395_2)" stroke-miterlimit="10"/>
<path d="M1 186.914C1 186.914 104.019 188.094 161.23 181.213C218.441 174.331 291.577 110.436 370.021 116.137C444.926 121.642 427.625 173.545 499.778 163.125C590.412 150.346 617.149 49.8827 706.013 61.089C790.355 71.7055 725.477 185.145 858.576 177.674C901.042 175.511 1046.72 104.341 1115.53 115.744C1201.45 129.9 1196.14 196.548 1401 186.914" stroke="url(#paint16_linear_395_2)" stroke-miterlimit="10"/>
<path d="M1 189.076C1 189.076 101.66 190.452 158.871 182.195C216.082 173.938 293.936 101.195 374.15 107.486C451.611 113.581 427.232 171.185 501.351 157.62C590.805 141.498 615.183 43.9841 706.407 54.2074C790.749 63.6443 729.802 176.1 856.02 168.04C896.127 165.484 1052.43 99.0326 1121.43 111.222C1205.18 126.164 1195.75 199.299 1401 188.88" stroke="url(#paint17_linear_395_2)" stroke-miterlimit="10"/>
<path d="M1 189.273C1 189.273 99.4974 191.042 156.708 181.212C213.723 171.382 296.296 89.7924 378.475 96.6734C458.295 103.554 426.839 167.057 502.924 150.346C591.198 130.882 613.021 36.1202 706.8 45.3605C790.945 53.6177 733.931 165.091 853.268 156.244C891.212 153.688 1058.32 91.5619 1127.33 104.734C1208.92 120.266 1195.35 199.889 1401 188.88" stroke="url(#paint18_linear_395_2)" stroke-miterlimit="10"/>
<path d="M1 189.47C1 189.47 97.1382 191.632 154.349 180.229C211.56 168.826 298.458 78.5863 382.8 86.0571C464.98 93.3314 426.446 162.928 504.497 142.875C591.788 120.266 611.055 28.2562 707.193 36.5135C791.142 43.5911 738.059 154.081 850.712 144.644C886.297 141.695 1064.02 84.2877 1133.43 98.443C1212.66 114.564 1195.16 200.479 1401 188.88" stroke="url(#paint19_linear_395_2)" stroke-miterlimit="10"/>
<path d="M1 189.47C1 189.47 94.9756 192.222 151.99 179.246C209.201 166.467 300.817 67.38 386.929 75.2441C471.664 83.5013 426.249 158.996 506.07 135.404C592.574 109.649 608.892 20.3922 707.39 27.6664C791.535 33.7611 742.385 143.268 848.156 133.045C881.185 129.899 1069.92 77.0135 1139.32 91.9552C1216.39 108.666 1194.76 201.069 1401 188.88" stroke="url(#paint20_linear_395_2)" stroke-miterlimit="10"/>
<path d="M1 189.666C1 189.666 92.6164 192.615 149.827 178.263C207.039 163.911 303.177 55.9771 391.254 64.6275C478.349 73.278 426.249 155.261 507.642 127.933C593.361 99.2294 606.926 12.7247 707.783 18.8194C791.732 23.7344 746.513 132.259 845.601 121.445C876.27 118.103 1075.62 69.5426 1145.42 85.6639C1220.13 102.768 1194.37 201.659 1401 188.88" stroke="url(#paint21_linear_395_2)" stroke-miterlimit="10"/>
<path d="M1 189.863C1 189.863 90.2571 193.205 147.468 177.28C204.679 161.355 305.339 44.5742 395.579 54.0111C485.033 63.2514 426.249 151.525 509.215 120.462C594.344 88.613 604.763 5.05727 708.176 9.97231C791.928 13.9043 750.642 121.249 842.848 109.649C871.355 106.111 1081.52 62.0718 1151.32 79.1761C1223.86 96.8702 1194.18 202.249 1401 188.88" stroke="url(#paint22_linear_395_2)" stroke-miterlimit="10"/>
<path d="M1 190.059C1 190.059 88.0945 193.795 145.306 176.297C202.517 158.996 307.699 33.1713 399.708 43.198C491.718 53.2247 426.249 147.79 510.788 112.992C595.327 78.1931 602.798 -2.6102 708.569 1.12524C792.321 4.07426 754.967 110.239 840.292 98.0498C866.44 94.3144 1087.22 54.6009 1157.41 72.6883C1227.6 90.9722 1193.78 202.838 1401 188.88" stroke="url(#paint23_linear_395_2)" stroke-miterlimit="10"/>
<defs>
<linearGradient id="paint0_linear_395_2" x1="1" y1="275.949" x2="1401" y2="275.949" gradientUnits="userSpaceOnUse">
<stop offset="0.00399963" stop-color="#999999"/>
<stop offset="0.55" stop-opacity="0"/>
<stop offset="1" stop-color="#999999"/>
</linearGradient>
<linearGradient id="paint1_linear_395_2" x1="1" y1="270.145" x2="1401" y2="270.145" gradientUnits="userSpaceOnUse">
<stop offset="0.00399963" stop-color="#999999"/>
<stop offset="0.55" stop-opacity="0"/>
<stop offset="1" stop-color="#999999"/>
</linearGradient>
<linearGradient id="paint2_linear_395_2" x1="1" y1="263.932" x2="1401" y2="263.932" gradientUnits="userSpaceOnUse">
<stop offset="0.00399963" stop-color="#999999"/>
<stop offset="0.55" stop-opacity="0"/>
<stop offset="1" stop-color="#999999"/>
</linearGradient>
<linearGradient id="paint3_linear_395_2" x1="1" y1="253.713" x2="1401" y2="253.713" gradientUnits="userSpaceOnUse">
<stop offset="0.00399963" stop-color="#999999"/>
<stop offset="0.55" stop-opacity="0"/>
<stop offset="1" stop-color="#999999"/>
</linearGradient>
<linearGradient id="paint4_linear_395_2" x1="1" y1="243.513" x2="1401" y2="243.513" gradientUnits="userSpaceOnUse">
<stop offset="0.00399963" stop-color="#999999"/>
<stop offset="0.55" stop-opacity="0"/>
<stop offset="1" stop-color="#999999"/>
</linearGradient>
<linearGradient id="paint5_linear_395_2" x1="1" y1="233.2" x2="1401" y2="233.2" gradientUnits="userSpaceOnUse">
<stop offset="0.00399963" stop-color="#999999"/>
<stop offset="0.55" stop-opacity="0"/>
<stop offset="1" stop-color="#999999"/>
</linearGradient>
<linearGradient id="paint6_linear_395_2" x1="1" y1="223.006" x2="1401" y2="223.006" gradientUnits="userSpaceOnUse">
<stop offset="0.00399963" stop-color="#999999"/>
<stop offset="0.55" stop-opacity="0"/>
<stop offset="1" stop-color="#999999"/>
</linearGradient>
<linearGradient id="paint7_linear_395_2" x1="1" y1="212.815" x2="1401" y2="212.815" gradientUnits="userSpaceOnUse">
<stop offset="0.00399963" stop-color="#999999"/>
<stop offset="0.55" stop-opacity="0"/>
<stop offset="1" stop-color="#999999"/>
</linearGradient>
<linearGradient id="paint8_linear_395_2" x1="1" y1="202.531" x2="1401" y2="202.531" gradientUnits="userSpaceOnUse">
<stop offset="0.00399963" stop-color="#999999"/>
<stop offset="0.55" stop-opacity="0"/>
<stop offset="1" stop-color="#999999"/>
</linearGradient>
<linearGradient id="paint9_linear_395_2" x1="1" y1="192.347" x2="1401" y2="192.347" gradientUnits="userSpaceOnUse">
<stop offset="0.00399963" stop-color="#999999"/>
<stop offset="0.55" stop-opacity="0"/>
<stop offset="1" stop-color="#999999"/>
</linearGradient>
<linearGradient id="paint10_linear_395_2" x1="1" y1="182.282" x2="1401" y2="182.282" gradientUnits="userSpaceOnUse">
<stop offset="0.00399963" stop-color="#999999"/>
<stop offset="0.55" stop-opacity="0"/>
<stop offset="1" stop-color="#999999"/>
</linearGradient>
<linearGradient id="paint11_linear_395_2" x1="1" y1="172.023" x2="1401" y2="172.023" gradientUnits="userSpaceOnUse">
<stop offset="0.00399963" stop-color="#999999"/>
<stop offset="0.55" stop-opacity="0"/>
<stop offset="1" stop-color="#999999"/>
</linearGradient>
<linearGradient id="paint12_linear_395_2" x1="1" y1="161.864" x2="1401" y2="161.864" gradientUnits="userSpaceOnUse">
<stop offset="0.00399963" stop-color="#999999"/>
<stop offset="0.55" stop-opacity="0"/>
<stop offset="1" stop-color="#999999"/>
</linearGradient>
<linearGradient id="paint13_linear_395_2" x1="1" y1="151.702" x2="1401" y2="151.702" gradientUnits="userSpaceOnUse">
<stop offset="0.00399963" stop-color="#999999"/>
<stop offset="0.55" stop-opacity="0"/>
<stop offset="1" stop-color="#999999"/>
</linearGradient>
<linearGradient id="paint14_linear_395_2" x1="1" y1="141.541" x2="1401" y2="141.541" gradientUnits="userSpaceOnUse">
<stop offset="0.00399963" stop-color="#999999"/>
<stop offset="0.55" stop-opacity="0"/>
<stop offset="1" stop-color="#999999"/>
</linearGradient>
<linearGradient id="paint15_linear_395_2" x1="1" y1="131.221" x2="1401" y2="131.221" gradientUnits="userSpaceOnUse">
<stop offset="0.00399963" stop-color="#999999"/>
<stop offset="0.55" stop-opacity="0"/>
<stop offset="1" stop-color="#999999"/>
</linearGradient>
<linearGradient id="paint16_linear_395_2" x1="1" y1="124.04" x2="1401" y2="124.04" gradientUnits="userSpaceOnUse">
<stop offset="0.00399963" stop-color="#999999"/>
<stop offset="0.55" stop-opacity="0"/>
<stop offset="1" stop-color="#999999"/>
</linearGradient>
<linearGradient id="paint17_linear_395_2" x1="1" y1="121.675" x2="1401" y2="121.675" gradientUnits="userSpaceOnUse">
<stop offset="0.00399963" stop-color="#999999"/>
<stop offset="0.55" stop-opacity="0"/>
<stop offset="1" stop-color="#999999"/>
</linearGradient>
<linearGradient id="paint18_linear_395_2" x1="1" y1="117.324" x2="1401" y2="117.324" gradientUnits="userSpaceOnUse">
<stop offset="0.00399963" stop-color="#999999"/>
<stop offset="0.55" stop-opacity="0"/>
<stop offset="1" stop-color="#999999"/>
</linearGradient>
<linearGradient id="paint19_linear_395_2" x1="1" y1="112.972" x2="1401" y2="112.972" gradientUnits="userSpaceOnUse">
<stop offset="0.00399963" stop-color="#999999"/>
<stop offset="0.55" stop-opacity="0"/>
<stop offset="1" stop-color="#999999"/>
</linearGradient>
<linearGradient id="paint20_linear_395_2" x1="1" y1="108.615" x2="1401" y2="108.615" gradientUnits="userSpaceOnUse">
<stop offset="0.00399963" stop-color="#999999"/>
<stop offset="0.55" stop-opacity="0"/>
<stop offset="1" stop-color="#999999"/>
</linearGradient>
<linearGradient id="paint21_linear_395_2" x1="1" y1="104.264" x2="1401" y2="104.264" gradientUnits="userSpaceOnUse">
<stop offset="0.00399963" stop-color="#999999"/>
<stop offset="0.55" stop-opacity="0"/>
<stop offset="1" stop-color="#999999"/>
</linearGradient>
<linearGradient id="paint22_linear_395_2" x1="1" y1="99.9597" x2="1401" y2="99.9597" gradientUnits="userSpaceOnUse">
<stop offset="0.00399963" stop-color="#999999"/>
<stop offset="0.55" stop-opacity="0"/>
<stop offset="1" stop-color="#999999"/>
</linearGradient>
<linearGradient id="paint23_linear_395_2" x1="1" y1="95.6969" x2="1401" y2="95.6969" gradientUnits="userSpaceOnUse">
<stop offset="0.00399963" stop-color="#999999"/>
<stop offset="0.55" stop-opacity="0"/>
<stop offset="1" stop-color="#999999"/>
</linearGradient>
</defs>
</svg>
