<svg width="245" height="53" viewBox="0 0 245 53" fill="none" xmlns="http://www.w3.org/2000/svg">
<path d="M60.1335 52.8221H11.6941C5.26953 52.7803 0.0231934 47.7961 0 41.7148V13.2889C0 11.2155 0.603035 9.193 1.74647 7.43726L1.78125 7.38391C1.823 7.31897 1.8601 7.26794 1.89489 7.21692C4.07507 4.03711 7.76282 2.13989 11.766 2.13989H60.2494H60.2703C66.681 2.21411 71.8948 7.20533 71.8995 13.2797V41.6707C71.8995 43.7303 71.3034 45.7411 70.1739 47.4899L70.1043 47.5966C70.0742 47.643 70.037 47.6963 69.9999 47.7497C67.8267 50.9248 64.139 52.8221 60.1335 52.8221ZM3.9336 8.65259C3.91041 8.68274 3.88953 8.71522 3.86633 8.75001L3.83618 8.79639C2.95483 10.1486 2.49097 11.7025 2.49097 13.2889V41.7101C2.50952 46.4253 6.64259 50.294 11.7034 50.3288H60.1288C63.3156 50.3288 66.2356 48.8351 67.945 46.3349L67.9589 46.314C67.9798 46.2838 68.0007 46.2537 68.0192 46.2259L68.0656 46.154C68.94 44.8064 69.4015 43.2571 69.4015 41.6753V13.2843C69.3992 8.56214 65.2778 4.68188 60.2123 4.6355H60.1752H11.766C8.58155 4.6355 5.65919 6.13147 3.9452 8.63867C3.94288 8.64099 3.94287 8.64331 3.94055 8.64331L3.9336 8.65259Z" fill="#89D9D0"/>
<path d="M15.0038 36.5661L17.242 40.1819L24.2695 30.9231C24.6615 30.4036 25.2877 30.0742 25.9789 30.0279C26.6677 29.9815 27.3357 30.2157 27.8158 30.6773L31.8329 34.5598L36.1585 31.4914L39.7929 26.8156C40.1431 26.3633 40.6788 26.0548 41.2772 25.9621L50.0838 24.6006L52.925 17.1231C53.245 16.2765 54.1148 15.7106 55.0889 15.7106H62.3531L67.3907 11.0812C66.3841 8.28174 63.522 6.25928 60.1358 6.25928H11.7706C7.5448 6.25928 4.12378 9.40198 4.12378 13.2799V35.4945H13.0115C13.8325 35.4992 14.5956 35.9074 15.0038 36.5661Z" fill="#89D9D0"/>
<path d="M64.9229 19.3102C64.4938 19.7068 63.9117 19.9294 63.297 19.9294H56.7148L53.9663 27.1704C53.688 27.8964 53.0015 28.4275 52.1781 28.5527L42.975 29.9768L39.6908 34.1957C39.5633 34.3627 39.4102 34.5134 39.2293 34.6364L32.9995 39.0593C32.0695 39.7204 30.7451 39.6276 29.9357 38.8436L26.4288 35.4551L18.9281 45.3355C18.4944 45.9037 17.7939 46.2377 17.0425 46.2377C17.0077 46.2377 16.9729 46.2377 16.9404 46.2354C16.1519 46.2006 15.4398 45.7993 15.0502 45.1731L11.6779 39.7157H4.12378V41.6756C4.12378 45.5558 7.54712 48.7008 11.7706 48.7008H60.1311C64.3547 48.7008 67.7734 45.5581 67.7734 41.6756V16.687L64.9229 19.3102Z" fill="#89D9D0"/>
<path d="M192.401 52L188.469 37.0008H167.645L163.713 52H149.588L163.64 0.667725H192.401L206.526 52H192.401ZM170.849 24.7684H185.192L179.732 4.08987H176.309L170.849 24.7684Z" fill="#5055A6"/>
<path d="M240.567 12.9001H228.845V39.7676H240.567V52H203.215V39.7676H214.938V12.9001H203.215V0.667725H240.567V12.9001Z" fill="#5055A6"/>
<path d="M97.3716 18.9143C97.3716 22.3982 94.8203 24.1402 89.7176 24.1402C86.5328 24.1402 84.2542 23.5155 82.8818 22.2663C81.5093 21.017 80.8231 19.1871 80.8231 16.7765H84.2278C84.2278 18.4481 84.6589 19.6006 85.5211 20.234C86.4009 20.8674 87.8261 21.1842 89.7968 21.1842C91.2396 21.1842 92.2954 21.0082 92.964 20.6563C93.6326 20.3044 93.9669 19.7501 93.9669 18.9935C93.9669 18.7824 93.9405 18.5888 93.8877 18.4129C93.835 18.2193 93.7382 18.0434 93.5974 17.885C93.4567 17.7266 93.3159 17.5859 93.1751 17.4627C93.052 17.3219 92.8584 17.19 92.5945 17.0668C92.3306 16.9261 92.1106 16.8117 91.9347 16.7237C91.7587 16.6357 91.4948 16.5302 91.1429 16.407C90.7909 16.2838 90.5182 16.1958 90.3247 16.1431C90.1311 16.0727 89.8232 15.9759 89.4009 15.8527C88.9786 15.712 88.6707 15.6152 88.4771 15.5624C87.6853 15.2985 87.0695 15.0873 86.6296 14.929C86.1897 14.7706 85.6531 14.5595 85.0196 14.2955C84.4038 14.0316 83.9287 13.7765 83.5944 13.5301C83.2777 13.2662 82.9434 12.9495 82.5915 12.58C82.2572 12.2105 82.0196 11.797 81.8788 11.3395C81.7381 10.8644 81.6677 10.3453 81.6677 9.78229C81.6677 8.25149 82.2571 7.07259 83.436 6.24561C84.6149 5.41862 86.3657 5.00513 88.6883 5.00513C91.3276 5.00513 93.3071 5.62977 94.6268 6.87904C95.9464 8.11073 96.6062 9.65913 96.6062 11.5242H93.2015C93.2015 9.14886 91.6971 7.96116 88.6883 7.96116C86.2777 7.96116 85.0724 8.5946 85.0724 9.86147C85.0724 10.4773 85.3364 10.9612 85.8642 11.3131C86.3921 11.665 87.439 12.0961 89.005 12.6064C91.398 13.3982 92.9552 13.97 93.6766 14.3219C96.1224 15.5008 97.3541 17.0316 97.3716 18.9143Z" fill="white"/>
<path d="M116.865 10.3628C118.343 10.3628 119.425 10.9171 120.111 12.0256C120.797 13.1341 121.141 14.5946 121.141 16.4069V23.8762H117.736V16.7764C117.736 15.4743 117.577 14.577 117.261 14.0843C116.944 13.574 116.346 13.3189 115.466 13.3189C113.231 13.3189 112.114 15.1312 112.114 18.7559V23.8762H108.709V16.7764C108.709 15.4743 108.551 14.577 108.234 14.0843C107.918 13.574 107.319 13.3189 106.44 13.3189C104.205 13.3189 103.088 15.1312 103.088 18.7559V23.8762H99.6829V10.6268H103.088V12.3423L102.481 14.3482H103.352C103.95 11.6913 105.445 10.3628 107.838 10.3628C110.038 10.3628 111.349 11.6913 111.771 14.3482H112.404C113.003 11.6913 114.489 10.3628 116.865 10.3628Z" fill="white"/>
<path d="M123.435 20.2339C123.435 19.0902 123.813 18.184 124.57 17.5154C125.344 16.8468 126.611 16.4069 128.37 16.1957L132.963 15.6415C132.91 13.9875 131.889 13.1605 129.901 13.1605C128.968 13.1605 128.221 13.3717 127.658 13.794C127.112 14.1987 126.839 14.8145 126.839 15.6415H123.619C123.619 14.0755 124.2 12.8086 125.361 11.8409C126.523 10.8555 128.036 10.3628 129.901 10.3628C131.819 10.3628 133.376 10.8907 134.573 11.9464C135.769 12.9846 136.367 14.4802 136.367 16.4333V20.9201H138.294V23.8762H135.602C135.021 23.8762 134.573 23.7178 134.256 23.4011C133.957 23.0844 133.807 22.6445 133.807 22.0814V21.6327L134.335 20.1283H133.438C132.804 22.8028 131.027 24.1401 128.106 24.1401C127.156 24.1401 126.347 24.0081 125.678 23.7442C125.027 23.4803 124.552 23.1283 124.253 22.6885C123.954 22.2486 123.743 21.8351 123.619 21.448C123.496 21.0433 123.435 20.6386 123.435 20.2339ZM126.839 19.6532C126.839 20.1635 127.007 20.5506 127.341 20.8145C127.693 21.0609 128.15 21.1841 128.713 21.1841C129.998 21.1841 131.027 20.8673 131.801 20.2339C132.576 19.5829 132.963 18.7383 132.963 17.7002L128.977 18.2016C128.221 18.2896 127.675 18.4392 127.341 18.6503C127.007 18.8439 126.839 19.1782 126.839 19.6532Z" fill="white"/>
<path d="M140.226 23.8764V12.4481C140.226 11.7795 140.402 11.2692 140.754 10.9173C141.124 10.5654 141.643 10.3982 142.311 10.4158L150.467 10.627V13.583L143.631 13.3983V23.8764H140.226Z" fill="white"/>
<path d="M158.003 21.1842L162.78 20.9202V23.8763L156.657 24.1402C155.988 24.1578 155.478 23.9906 155.126 23.6387C154.774 23.2868 154.598 22.7677 154.598 22.0815V13.5829H151.536V10.6269H154.598V7.77643L158.003 6.7207V10.6269H162.252V13.5829H158.003V21.1842Z" fill="white"/>
<path d="M97.3716 43.9143C97.3716 47.3982 94.8203 49.1402 89.7176 49.1402C86.5328 49.1402 84.2542 48.5156 82.8818 47.2663C81.5093 46.017 80.8231 44.1871 80.8231 41.7765H84.2278C84.2278 43.4481 84.6589 44.6006 85.5211 45.234C86.4009 45.8674 87.8261 46.1842 89.7968 46.1842C91.2396 46.1842 92.2954 46.0082 92.964 45.6563C93.6326 45.3044 93.9669 44.7501 93.9669 43.9935C93.9669 43.7824 93.9405 43.5888 93.8877 43.4129C93.835 43.2193 93.7382 43.0434 93.5974 42.885C93.4567 42.7266 93.3159 42.5859 93.1751 42.4627C93.052 42.3219 92.8584 42.19 92.5945 42.0668C92.3306 41.9261 92.1106 41.8117 91.9347 41.7237C91.7587 41.6357 91.4948 41.5302 91.1429 41.407C90.7909 41.2838 90.5182 41.1958 90.3247 41.1431C90.1311 41.0727 89.8232 40.9759 89.4009 40.8527C88.9786 40.712 88.6707 40.6152 88.4771 40.5624C87.6853 40.2985 87.0695 40.0873 86.6296 39.929C86.1897 39.7706 85.6531 39.5595 85.0196 39.2955C84.4038 39.0316 83.9287 38.7765 83.5944 38.5301C83.2777 38.2662 82.9434 37.9495 82.5915 37.58C82.2572 37.2105 82.0196 36.797 81.8788 36.3395C81.7381 35.8644 81.6677 35.3453 81.6677 34.7823C81.6677 33.2515 82.2571 32.0726 83.436 31.2456C84.6149 30.4186 86.3657 30.0051 88.6883 30.0051C91.3276 30.0051 93.3071 30.6298 94.6268 31.879C95.9464 33.1107 96.6062 34.6591 96.6062 36.5242H93.2015C93.2015 34.1489 91.6971 32.9612 88.6883 32.9612C86.2777 32.9612 85.0724 33.5946 85.0724 34.8615C85.0724 35.4773 85.3364 35.9612 85.8642 36.3131C86.3921 36.665 87.439 37.0961 89.005 37.6064C91.398 38.3982 92.9552 38.97 93.6766 39.3219C96.1224 40.5008 97.3541 42.0316 97.3716 43.9143Z" fill="white"/>
<path d="M104.984 46.1842L109.761 45.9202V48.8763L103.638 49.1402C102.97 49.1578 102.459 48.9906 102.107 48.6387C101.755 48.2868 101.58 47.7677 101.58 47.0815V38.5829H98.5179V35.6269H101.58V32.7764L104.984 31.7207V35.6269H109.234V38.5829H104.984V46.1842Z" fill="white"/>
<path d="M113.121 47.2926C111.766 46.0609 111.089 44.3805 111.089 42.2515C111.089 40.1224 111.766 38.4421 113.121 37.2104C114.476 35.9787 116.227 35.3628 118.373 35.3628C120.502 35.3628 122.244 35.9787 123.599 37.2104C124.954 38.4421 125.631 40.1224 125.631 42.2515C125.631 44.3805 124.954 46.0609 123.599 47.2926C122.244 48.5242 120.502 49.1401 118.373 49.1401C116.227 49.1401 114.476 48.5242 113.121 47.2926ZM115.523 39.3746C114.837 40.0784 114.493 41.0374 114.493 42.2515C114.493 43.4656 114.837 44.4245 115.523 45.1283C116.209 45.8321 117.159 46.1841 118.373 46.1841C119.587 46.1841 120.537 45.8321 121.224 45.1283C121.91 44.4245 122.253 43.4656 122.253 42.2515C122.253 41.0374 121.91 40.0784 121.224 39.3746C120.537 38.6708 119.587 38.3189 118.373 38.3189C117.159 38.3189 116.209 38.6708 115.523 39.3746Z" fill="white"/>
<path d="M127.404 42.2515C127.404 40.1752 128.046 38.5124 129.331 37.2632C130.615 35.9963 132.322 35.3628 134.451 35.3628C136.211 35.3628 137.741 35.8467 139.043 36.8145C140.363 37.7646 141.084 39.1371 141.208 40.9318H137.803C137.68 40.0872 137.319 39.445 136.721 39.0051C136.123 38.5476 135.366 38.3189 134.451 38.3189C133.272 38.3189 132.366 38.6796 131.732 39.401C131.117 40.1048 130.809 41.055 130.809 42.2515C130.809 43.448 131.117 44.4069 131.732 45.1283C132.366 45.8321 133.272 46.1841 134.451 46.1841C135.366 46.1841 136.123 45.9641 136.721 45.5242C137.319 45.0667 137.68 44.4157 137.803 43.5711H141.208C141.084 45.3659 140.363 46.7471 139.043 47.7149C137.741 48.665 136.211 49.1401 134.451 49.1401C132.322 49.1401 130.615 48.5155 129.331 47.2662C128.046 46.0169 127.404 44.3453 127.404 42.2515Z" fill="white"/>
<path d="M153.4 48.8763L149.652 43.3601L146.801 44.7853V48.8763H143.397V29.4773H146.801V41.275L153.136 38.1078L153.004 35.6269H156.382L156.488 38.3454C156.505 39.4187 156.03 40.1929 155.062 40.668L152.529 41.9348L157.279 48.8763H153.4Z" fill="white"/>
<path d="M170.655 45.3131C170.655 47.8644 168.728 49.1401 164.875 49.1401C162.622 49.1401 160.951 48.7002 159.86 47.8204C158.787 46.9231 158.25 45.665 158.25 44.0462H161.655C161.655 45.7002 162.754 46.5272 164.954 46.5272C166.485 46.5272 167.25 46.1049 167.25 45.2603C167.25 44.8204 167.057 44.4861 166.669 44.2574C166.282 44.0286 165.587 43.7559 164.584 43.4392C164.32 43.3688 164.118 43.3072 163.977 43.2544C162.235 42.6738 161.092 42.2163 160.546 41.882C159.438 41.1781 158.875 40.2192 158.857 39.0051C158.857 37.8614 159.332 36.9728 160.282 36.3394C161.232 35.6884 162.561 35.3628 164.268 35.3628C166.291 35.3628 167.787 35.8115 168.754 36.7089C169.722 37.5887 170.206 38.6972 170.206 40.0344H166.801C166.801 38.662 165.948 37.9758 164.241 37.9758C162.922 37.9758 162.262 38.3453 162.262 39.0843C162.262 39.489 162.499 39.8145 162.974 40.0608C163.449 40.3072 164.303 40.6327 165.535 41.0374C167.294 41.618 168.429 42.0579 168.939 42.357C170.083 43.0609 170.655 44.0462 170.655 45.3131Z" fill="white"/>
</svg>
