<svg width="100" height="100" viewBox="0 0 100 100" fill="none" xmlns="http://www.w3.org/2000/svg">
<circle cx="50" cy="50" r="50" fill="#151515"/>
<path d="M69.7714 55.7588C69.2679 55.7588 68.86 55.351 68.86 54.8474V46.8876C68.86 46.1338 68.2468 45.5205 67.493 45.5205H63.3157C62.8122 45.5205 62.4044 45.1126 62.4044 44.6091C62.4044 44.1055 62.8122 43.6977 63.3157 43.6977H67.493C69.2519 43.6977 70.6828 45.1286 70.6828 46.8876V54.8478C70.6828 55.351 70.2746 55.7588 69.7714 55.7588ZM67.493 79.1645H28.8598C27.1008 79.1645 25.6699 77.7336 25.6699 75.9746V41.3816C25.6699 40.8781 26.0778 40.4702 26.5813 40.4702C27.0849 40.4702 27.4927 40.8781 27.4927 41.3816V75.9746C27.4927 76.7284 28.106 77.3417 28.8598 77.3417H67.493C68.2468 77.3417 68.86 76.7284 68.86 75.9746V64.7873C68.86 64.2838 69.2679 63.8759 69.7714 63.8759C70.275 63.8759 70.6828 64.2838 70.6828 64.7873V75.9746C70.6828 77.7336 69.2519 79.1645 67.493 79.1645Z" fill="#89D9D0"/>
<path d="M63.3156 45.5201H29.8079C29.7946 45.5201 29.7817 45.5201 29.7684 45.5197C28.6778 45.5098 27.6532 45.08 26.8816 44.3079C26.1115 43.5386 25.6812 42.5155 25.6698 41.4272C25.6694 41.412 25.6694 41.3968 25.6694 41.382C25.6694 39.1001 27.526 37.2439 29.8079 37.2439H32.6834C33.1869 37.2439 33.5948 37.6517 33.5948 38.1553C33.5948 38.6588 33.1869 39.0667 32.6834 39.0667H29.8079C28.5308 39.0667 27.4922 40.1053 27.4922 41.382V41.3839C27.4922 41.39 27.4926 41.396 27.4926 41.4021C27.4975 42.0128 27.7383 42.5873 28.1708 43.0191C28.6045 43.4531 29.1806 43.6939 29.7931 43.6973C29.7999 43.6973 29.8072 43.6973 29.814 43.6977H62.4046V41.382C62.4046 40.2044 61.5244 39.2159 60.357 39.0819C59.8569 39.0245 59.498 38.5726 59.5554 38.0725C59.6127 37.5724 60.0646 37.2135 60.5648 37.2709C62.653 37.5101 64.2278 39.2774 64.2278 41.3816V44.6087C64.227 45.1119 63.8192 45.5201 63.3156 45.5201ZM27.4918 41.3721C27.4918 41.3736 27.4918 41.3752 27.4922 41.3771C27.4922 41.3755 27.4918 41.3736 27.4918 41.3721Z" fill="#89D9D0"/>
<path d="M34.0243 45.5206C33.8998 45.5206 33.7729 45.4947 33.6518 45.4404C33.1927 45.2342 32.9872 44.695 33.1934 44.2359L43.4508 21.3736C43.5495 21.153 43.7322 20.9809 43.9581 20.8947C44.184 20.8089 44.4347 20.8161 44.6553 20.9149L64.2586 29.7102C64.7177 29.9164 64.9232 30.4556 64.717 30.9147L58.4056 44.9813C58.1994 45.4404 57.6601 45.6459 57.201 45.4397C56.7419 45.2335 56.5365 44.6942 56.7427 44.2351L62.6808 31.0002L44.7408 22.9514L34.8563 44.9821C34.7048 45.32 34.3725 45.5206 34.0243 45.5206Z" fill="#89D9D0"/>
<path d="M53.7603 45.5205C53.6358 45.5205 53.5089 45.4946 53.3878 45.4403C52.9287 45.2341 52.7232 44.6949 52.9294 44.2358L56.7326 35.7587C56.0878 35.2821 55.5911 34.6305 55.299 33.863C55.007 33.0951 54.9444 32.2787 55.1092 31.4938L49.4065 28.9354C48.9299 29.5802 48.2783 30.0765 47.5104 30.3686C46.743 30.6606 45.9261 30.7232 45.1412 30.5581L41.5659 38.5278L38.6703 44.982C38.4645 45.4411 37.9249 45.6465 37.4657 45.4403C37.0066 45.2341 36.8012 44.6949 37.0074 44.2358L39.903 37.7816L43.8117 29.0695C43.9107 28.8489 44.0932 28.6767 44.319 28.5906C44.545 28.5048 44.7957 28.512 45.0163 28.6107C45.6045 28.8746 46.2603 28.8936 46.8626 28.6646C47.4649 28.4353 47.9422 27.9853 48.2058 27.3974C48.3045 27.1768 48.4871 27.0048 48.7131 26.9186C48.939 26.8324 49.1897 26.84 49.4103 26.9387L56.5974 30.1631C56.8179 30.2621 56.9901 30.4446 57.0763 30.6705C57.1621 30.8964 57.1549 31.1471 57.0561 31.3677C56.7922 31.9555 56.7732 32.6113 57.0026 33.214C57.232 33.8167 57.6823 34.2936 58.2702 34.5576C58.4908 34.6563 58.6628 34.8389 58.749 35.0649C58.8352 35.2908 58.8276 35.5415 58.7289 35.7621L57.4879 38.5274L54.5923 44.9816C54.4404 45.32 54.1082 45.5205 53.7603 45.5205Z" fill="#89D9D0"/>
<path d="M42.6176 45.5203C42.1145 45.5203 41.7066 45.1128 41.7062 44.6096C41.7059 44.0294 41.8266 43.4655 42.0659 42.9334C42.5132 41.9362 43.3224 41.1729 44.344 40.7841C45.3659 40.3952 46.4778 40.4275 47.475 40.8752C48.9431 41.5337 49.8924 42.9995 49.8932 44.6089C49.8936 45.112 49.4857 45.5206 48.9822 45.5206H48.9818C48.4786 45.5206 48.0708 45.1128 48.0704 44.6096C48.07 43.7168 47.5433 42.9038 46.7288 42.5381C46.1755 42.2898 45.5588 42.2719 44.9922 42.4876C44.4256 42.7033 43.9767 43.1267 43.7284 43.68C43.5955 43.9755 43.5286 44.288 43.5286 44.6085C43.529 45.112 43.1212 45.5203 42.618 45.5206C42.618 45.5203 42.618 45.5203 42.6176 45.5203ZM29.7875 45.5203C29.6629 45.5203 29.5361 45.4944 29.415 45.4401C28.9559 45.2339 28.7504 44.6947 28.9566 44.2356L38.6497 22.6314C38.7487 22.4109 38.9311 22.2387 39.157 22.1525C39.3829 22.0667 39.6336 22.0739 39.8542 22.1727L43.3813 23.7558C43.8404 23.962 44.0459 24.5013 43.8397 24.9604C43.6335 25.4195 43.0942 25.6249 42.6351 25.4187L39.9397 24.2093L30.6195 44.9814C30.4676 45.3198 30.1353 45.5203 29.7875 45.5203ZM73.4197 65.6989H64.2533C61.0103 65.6989 58.3722 63.0604 58.3722 59.8174C58.3722 56.5743 61.0107 53.9362 64.2533 53.9362H73.4197C73.9232 53.9362 74.331 54.3441 74.331 54.8476V64.7875C74.331 65.291 73.9228 65.6989 73.4197 65.6989ZM64.2533 55.759C62.0155 55.759 60.195 57.5795 60.195 59.8174C60.195 62.0552 62.0155 63.8761 64.2533 63.8761H72.5083V55.759H64.2533Z" fill="#89D9D0"/>
<path d="M64.1566 62.3689C62.7496 62.3689 61.6055 61.2243 61.6055 59.8177C61.6055 58.4112 62.75 57.2666 64.1566 57.2666C65.5632 57.2666 66.7077 58.4112 66.7077 59.8177C66.7077 61.2243 65.5632 62.3689 64.1566 62.3689ZM64.1566 59.0894C63.7548 59.0894 63.4283 59.416 63.4283 59.8177C63.4283 60.2195 63.7548 60.5461 64.1566 60.5461C64.5584 60.5461 64.885 60.2195 64.885 59.8177C64.885 59.416 64.558 59.0894 64.1566 59.0894Z" fill="#89D9D0"/>
</svg>
