<svg width="100" height="100" viewBox="0 0 100 100" fill="none" xmlns="http://www.w3.org/2000/svg">
<circle cx="50" cy="50" r="50" fill="#151515"/>
<path d="M74.0833 25.5833H25.9167C24 25.5833 22.5 27.0833 22.5 28.9166V60.1666C22.5 61.9999 24 63.5833 25.9167 63.5833H74.1667C76 63.5833 77.5833 62.0833 77.5833 60.1666V28.9166C77.5 27.0833 76 25.5833 74.0833 25.5833ZM75.8333 60.1666C75.8333 61.0833 75.0833 61.9166 74.0833 61.9166H25.9167C25 61.9166 24.1667 61.1666 24.1667 60.1666V28.9166C24.1667 27.9999 24.9167 27.1666 25.9167 27.1666H74.1667C75.0833 27.1666 75.9167 27.9166 75.9167 28.9166V60.1666H75.8333Z" fill="#89D9D0"/>
<path d="M50 30.75C42.4167 30.75 36.25 36.9167 36.25 44.5833C36.25 52.1667 42.4167 58.3333 50 58.3333C57.5833 58.3333 63.75 52.1667 63.75 44.5833C63.75 36.9167 57.5833 30.75 50 30.75ZM50 56.6667C43.3333 56.6667 37.9167 51.25 37.9167 44.5833C37.9167 37.9167 43.3333 32.4167 50 32.4167C56.6667 32.4167 62.0833 37.8333 62.0833 44.5833C62.0833 51.25 56.6667 56.6667 50 56.6667Z" fill="#89D9D0"/>
<path d="M55.0833 42.4999L48.1667 38.3332C46.5833 37.4166 44.5833 38.4999 44.5833 40.4166V48.7499C44.5833 50.5832 46.5833 51.7499 48.1667 50.8332L55.0833 46.6666C56.6667 45.6666 56.6667 43.4166 55.0833 42.4999ZM54.25 45.1666L47.3333 49.3332C46.8333 49.5832 46.25 49.2499 46.25 48.7499V40.4166C46.25 39.8332 46.8333 39.4999 47.3333 39.8332L54.25 43.9999C54.5833 44.1666 54.5833 44.4999 54.5833 44.5832C54.5833 44.6666 54.5 44.9999 54.25 45.1666ZM76.6667 70.4166H36.75C36.3333 68.9999 34.75 67.9999 32.8333 67.9999C30.9167 67.9999 29.4167 68.9999 29 70.4166H24.0833C23.5833 70.4166 23.25 70.7499 23.25 71.2499C23.25 71.7499 23.5833 72.0832 24.0833 72.0832H29C29.5 73.4999 31 74.4999 32.8333 74.4999C34.6667 74.4999 36.25 73.4999 36.75 72.0832H76.6667C77.1667 72.0832 77.5 71.7499 77.5 71.2499C77.5 70.7499 77.1667 70.4166 76.6667 70.4166ZM32.8333 72.7499C31.5833 72.7499 30.5 71.9999 30.5 71.1666C30.5 70.3332 31.5833 69.5832 32.8333 69.5832C34.0833 69.5832 35.1667 70.3332 35.1667 71.1666C35.1667 72.0832 34.0833 72.7499 32.8333 72.7499Z" fill="#89D9D0"/>
</svg>
