<svg width="100" height="100" viewBox="0 0 100 100" fill="none" xmlns="http://www.w3.org/2000/svg">
<circle cx="50" cy="50" r="50" fill="#151515"/>
<path d="M76.25 35H43.75C41.6825 35 40 33.3175 40 31.25V23.75C40 21.6825 41.6825 20 43.75 20H76.25C78.3175 20 80 21.6825 80 23.75V31.25C80 33.3175 78.3175 35 76.25 35ZM43.75 22.5C43.4185 22.5 43.1005 22.6317 42.8661 22.8661C42.6317 23.1005 42.5 23.4185 42.5 23.75V31.25C42.5 31.5815 42.6317 31.8995 42.8661 32.1339C43.1005 32.3683 43.4185 32.5 43.75 32.5H76.25C76.5815 32.5 76.8995 32.3683 77.1339 32.1339C77.3683 31.8995 77.5 31.5815 77.5 31.25V23.75C77.5 23.4185 77.3683 23.1005 77.1339 22.8661C76.8995 22.6317 76.5815 22.5 76.25 22.5H43.75ZM76.25 55H61.25C59.1825 55 57.5 53.3175 57.5 51.25V43.75C57.5 41.6825 59.1825 40 61.25 40H76.25C78.3175 40 80 41.6825 80 43.75V51.25C80 53.3175 78.3175 55 76.25 55ZM61.25 42.5C60.9185 42.5 60.6005 42.6317 60.3661 42.8661C60.1317 43.1005 60 43.4185 60 43.75V51.25C60 51.5815 60.1317 51.8995 60.3661 52.1339C60.6005 52.3683 60.9185 52.5 61.25 52.5H76.25C76.5815 52.5 76.8995 52.3683 77.1339 52.1339C77.3683 51.8995 77.5 51.5815 77.5 51.25V43.75C77.5 43.4185 77.3683 43.1005 77.1339 42.8661C76.8995 42.6317 76.5815 42.5 76.25 42.5H61.25ZM51.25 45H21.25C20.9185 45 20.6005 44.8683 20.3661 44.6339C20.1317 44.3995 20 44.0815 20 43.75C20 43.4185 20.1317 43.1005 20.3661 42.8661C20.6005 42.6317 20.9185 42.5 21.25 42.5H51.25C51.5815 42.5 51.8995 42.6317 52.1339 42.8661C52.3683 43.1005 52.5 43.4185 52.5 43.75C52.5 44.0815 52.3683 44.3995 52.1339 44.6339C51.8995 44.8683 51.5815 45 51.25 45ZM51.25 52.5H21.25C20.9185 52.5 20.6005 52.3683 20.3661 52.1339C20.1317 51.8995 20 51.5815 20 51.25C20 50.9185 20.1317 50.6005 20.3661 50.3661C20.6005 50.1317 20.9185 50 21.25 50H51.25C51.5815 50 51.8995 50.1317 52.1339 50.3661C52.3683 50.6005 52.5 50.9185 52.5 51.25C52.5 51.5815 52.3683 51.8995 52.1339 52.1339C51.8995 52.3683 51.5815 52.5 51.25 52.5ZM78.75 62.5H21.25C20.9185 62.5 20.6005 62.3683 20.3661 62.1339C20.1317 61.8995 20 61.5815 20 61.25C20 60.9185 20.1317 60.6005 20.3661 60.3661C20.6005 60.1317 20.9185 60 21.25 60H78.75C79.0815 60 79.3995 60.1317 79.6339 60.3661C79.8683 60.6005 80 60.9185 80 61.25C80 61.5815 79.8683 61.8995 79.6339 62.1339C79.3995 62.3683 79.0815 62.5 78.75 62.5ZM78.75 70H21.25C20.9185 70 20.6005 69.8683 20.3661 69.6339C20.1317 69.3995 20 69.0815 20 68.75C20 68.4185 20.1317 68.1005 20.3661 67.8661C20.6005 67.6317 20.9185 67.5 21.25 67.5H78.75C79.0815 67.5 79.3995 67.6317 79.6339 67.8661C79.8683 68.1005 80 68.4185 80 68.75C80 69.0815 79.8683 69.3995 79.6339 69.6339C79.3995 69.8683 79.0815 70 78.75 70ZM78.75 77.5H21.25C20.9185 77.5 20.6005 77.3683 20.3661 77.1339C20.1317 76.8995 20 76.5815 20 76.25C20 75.9185 20.1317 75.6005 20.3661 75.3661C20.6005 75.1317 20.9185 75 21.25 75H78.75C79.0815 75 79.3995 75.1317 79.6339 75.3661C79.8683 75.6005 80 75.9185 80 76.25C80 76.5815 79.8683 76.8995 79.6339 77.1339C79.3995 77.3683 79.0815 77.5 78.75 77.5ZM27.5 35C23.365 35 20 31.635 20 27.5C20 23.365 23.365 20 27.5 20C31.635 20 35 23.365 35 27.5C35 31.635 31.635 35 27.5 35ZM27.5 22.5C24.7425 22.5 22.5 24.7425 22.5 27.5C22.5 30.2575 24.7425 32.5 27.5 32.5C30.2575 32.5 32.5 30.2575 32.5 27.5C32.5 24.7425 30.2575 22.5 27.5 22.5Z" fill="#89D9D0"/>
</svg>
