<svg width="100" height="100" viewBox="0 0 100 100" fill="none" xmlns="http://www.w3.org/2000/svg">
<circle cx="50" cy="50" r="50" fill="#151515"/>
<path d="M50 70.625C49.8045 70.6252 49.614 70.5639 49.4553 70.4497C42.7494 65.6562 34.0391 65 25.625 65C25.3764 65 25.1379 64.9012 24.9621 64.7254C24.7863 64.5496 24.6875 64.3111 24.6875 64.0625V22.8125C24.6875 22.5639 24.7863 22.3254 24.9621 22.1496C25.1379 21.9738 25.3764 21.875 25.625 21.875C34.13 21.875 42.9509 22.5425 50 27.2966C57.0491 22.5425 65.87 21.875 74.375 21.875C74.6236 21.875 74.8621 21.9738 75.0379 22.1496C75.2137 22.3254 75.3125 22.5639 75.3125 22.8125V53.75H73.4375V23.75C65.3178 23.8025 57.0022 24.5853 50.5447 29.1969C50.3857 29.3103 50.1953 29.3713 50 29.3713C49.8047 29.3713 49.6143 29.3103 49.4553 29.1969C42.9978 24.5881 34.6822 23.8053 26.5625 23.75V63.125C34.7759 63.1775 43.2097 63.9687 50 68.5437C51.3624 67.6284 52.8082 66.8437 54.3181 66.2L55.0569 67.9231C53.4667 68.5987 51.9539 69.4436 50.5447 70.4431C50.3868 70.5596 50.1962 70.6233 50 70.625Z" fill="#89D9D0"/>
<path d="M44.9434 59.2991C41.1774 57.6875 36.653 56.8438 30.2715 56.5625L30.354 54.6875C36.9718 54.9791 41.6977 55.8706 45.6821 57.575L44.9434 59.2991ZM44.9434 54.6116C41.1774 53 36.653 52.1563 30.2715 51.875L30.354 50C36.9718 50.2916 41.6977 51.1831 45.6821 52.8875L44.9434 54.6116ZM44.9434 49.9241C41.1774 48.3125 36.653 47.4688 30.2715 47.1875L30.354 45.3125C36.9718 45.6041 41.6977 46.4956 45.6821 48.2L44.9434 49.9241ZM44.9434 45.2366C41.1774 43.625 36.653 42.7813 30.2715 42.5L30.354 40.625C36.9718 40.9166 41.6977 41.8081 45.6821 43.5125L44.9434 45.2366ZM44.9434 40.5491C41.1774 38.9375 36.653 38.0938 30.2715 37.8125L30.354 35.9375C36.9718 36.2291 41.6977 37.1206 45.6821 38.825L44.9434 40.5491ZM44.9434 35.8616C41.1774 34.25 36.653 33.4063 30.2715 33.125L30.354 31.25C36.9718 31.5416 41.6977 32.4331 45.6821 34.1375L44.9434 35.8616ZM55.0571 54.6116L54.3184 52.8884C58.3018 51.1841 63.0287 50.2925 69.6465 50.0009L69.729 51.8759C63.3474 52.1562 58.823 53 55.0571 54.6116ZM55.0571 49.9241L54.3184 48.2009C58.3018 46.4966 63.0287 45.605 69.6465 45.3134L69.729 47.1884C63.3474 47.4687 58.823 48.3125 55.0571 49.9241ZM55.0571 45.2366L54.3184 43.5134C58.3018 41.8091 63.0287 40.9175 69.6465 40.6259L69.729 42.5009C63.3474 42.7812 58.823 43.625 55.0571 45.2366ZM55.0571 40.5491L54.3184 38.8259C58.3018 37.1216 63.0287 36.23 69.6465 35.9384L69.729 37.8134C63.3474 38.0937 58.823 38.9375 55.0571 40.5491ZM55.0571 35.8616L54.3184 34.1384C58.3018 32.4341 63.0287 31.5425 69.6465 31.2509L69.729 33.1259C63.3474 33.4063 58.823 34.25 55.0571 35.8616ZM49.0627 28.4375H50.9377V73.4375H49.0627V28.4375Z" fill="#89D9D0"/>
<path d="M55.625 74.375H24.6875C23.4448 74.3735 22.2533 73.8792 21.3746 73.0004C20.4958 72.1217 20.0015 70.9302 20 69.6875V30.3125C20.0015 29.0698 20.4958 27.8783 21.3746 26.9996C22.2533 26.1208 23.4448 25.6265 24.6875 25.625H25.625V27.5H24.6875C23.9416 27.5 23.2262 27.7963 22.6988 28.3238C22.1713 28.8512 21.875 29.5666 21.875 30.3125V69.6875C21.875 70.4334 22.1713 71.1488 22.6988 71.6762C23.2262 72.2037 23.9416 72.5 24.6875 72.5H55.625V74.375ZM80 56.5625H78.125V30.3125C78.125 29.5666 77.8287 28.8512 77.3012 28.3238C76.7738 27.7963 76.0584 27.5 75.3125 27.5H74.375V25.625H75.3125C76.5552 25.6265 77.7467 26.1208 78.6254 26.9996C79.5042 27.8783 79.9985 29.0698 80 30.3125V56.5625ZM69.6875 78.125H65.9375C65.6889 78.125 65.4504 78.0262 65.2746 77.8504C65.0988 77.6746 65 77.4361 65 77.1875V74.8756C64.4762 74.7112 63.9682 74.5 63.4822 74.2447L61.8463 75.8806C61.6704 76.0564 61.432 76.1551 61.1834 76.1551C60.9348 76.1551 60.6964 76.0564 60.5206 75.8806L57.8694 73.2294C57.6936 73.0536 57.5949 72.8152 57.5949 72.5666C57.5949 72.318 57.6936 72.0796 57.8694 71.9037L59.5053 70.2678C59.25 69.7818 59.0388 69.2738 58.8744 68.75H56.5625C56.3139 68.75 56.0754 68.6512 55.8996 68.4754C55.7238 68.2996 55.625 68.0611 55.625 67.8125V64.0625C55.625 63.8139 55.7238 63.5754 55.8996 63.3996C56.0754 63.2238 56.3139 63.125 56.5625 63.125H58.8744C59.0388 62.6012 59.25 62.0932 59.5053 61.6072L57.8694 59.9713C57.6936 59.7954 57.5949 59.557 57.5949 59.3084C57.5949 59.0598 57.6936 58.8214 57.8694 58.6456L60.5206 55.9944C60.6964 55.8186 60.9348 55.7199 61.1834 55.7199C61.432 55.7199 61.6704 55.8186 61.8463 55.9944L63.4822 57.6303C63.9684 57.3753 64.4763 57.1642 65 56.9994V54.6875C65 54.4389 65.0988 54.2004 65.2746 54.0246C65.4504 53.8488 65.6889 53.75 65.9375 53.75H69.6875C69.9361 53.75 70.1746 53.8488 70.3504 54.0246C70.5262 54.2004 70.625 54.4389 70.625 54.6875V56.9994C71.1487 57.1642 71.6566 57.3753 72.1428 57.6303L73.7787 55.9944C73.9546 55.8186 74.193 55.7199 74.4416 55.7199C74.6902 55.7199 74.9286 55.8186 75.1044 55.9944L77.7556 58.6456C77.9314 58.8214 78.0301 59.0598 78.0301 59.3084C78.0301 59.557 77.9314 59.7954 77.7556 59.9713L76.1197 61.6072C76.375 62.0932 76.5862 62.6012 76.7506 63.125H79.0625C79.3111 63.125 79.5496 63.2238 79.7254 63.3996C79.9012 63.5754 80 63.8139 80 64.0625V67.8125C80 68.0611 79.9012 68.2996 79.7254 68.4754C79.5496 68.6512 79.3111 68.75 79.0625 68.75H76.7506C76.5862 69.2738 76.375 69.7818 76.1197 70.2678L77.7556 71.9037C77.9314 72.0796 78.0301 72.318 78.0301 72.5666C78.0301 72.8152 77.9314 73.0536 77.7556 73.2294L75.1044 75.8806C74.9286 76.0564 74.6902 76.1551 74.4416 76.1551C74.193 76.1551 73.9546 76.0564 73.7787 75.8806L72.1428 74.2447C71.6568 74.5 71.1488 74.7112 70.625 74.8756V77.1875C70.625 77.4361 70.5262 77.6746 70.3504 77.8504C70.1746 78.0262 69.9361 78.125 69.6875 78.125ZM66.875 76.25H68.75V74.1594C68.75 73.9469 68.8222 73.7408 68.9547 73.5747C69.0872 73.4086 69.2722 73.2925 69.4794 73.2453C70.3013 73.0576 71.0855 72.7321 71.7987 72.2825C71.9785 72.1691 72.1914 72.1202 72.4027 72.1437C72.6139 72.1672 72.8108 72.2617 72.9613 72.4119L74.4416 73.8922L75.7672 72.5666L74.2869 71.0863C74.1367 70.9358 74.0422 70.7389 74.0187 70.5277C73.9952 70.3164 74.0441 70.1035 74.1575 69.9237C74.6087 69.2108 74.9359 68.4266 75.125 67.6044C75.172 67.398 75.2874 67.2136 75.4525 67.0812C75.6177 66.9487 75.8227 66.8761 76.0344 66.875H78.125V65H76.0344C75.8219 65 75.6158 64.9278 75.4497 64.7953C75.2836 64.6628 75.1675 64.4778 75.1203 64.2706C74.9326 63.4487 74.6071 62.6645 74.1575 61.9513C74.0441 61.7715 73.9952 61.5586 74.0187 61.3473C74.0422 61.1361 74.1367 60.9392 74.2869 60.7887L75.7672 59.3084L74.4416 57.9828L72.9613 59.4631C72.811 59.6132 72.6143 59.7078 72.4033 59.7315C72.1922 59.7551 71.9794 59.7065 71.7997 59.5934C71.086 59.1438 70.3016 58.818 69.4794 58.6297C69.2722 58.5825 69.0872 58.4664 68.9547 58.3003C68.8222 58.1342 68.75 57.9281 68.75 57.7156V55.625H66.875V57.7156C66.875 57.9281 66.8028 58.1342 66.6703 58.3003C66.5378 58.4664 66.3528 58.5825 66.1456 58.6297C65.3234 58.818 64.539 59.1438 63.8253 59.5934C63.6456 59.7065 63.4328 59.7551 63.2217 59.7315C63.0107 59.7078 62.814 59.6132 62.6637 59.4631L61.1834 57.9828L59.8578 59.3084L61.3381 60.7887C61.4883 60.9392 61.5828 61.1361 61.6063 61.3473C61.6298 61.5586 61.5809 61.7715 61.4675 61.9513C61.0179 62.6645 60.6924 63.4487 60.5047 64.2706C60.4575 64.4778 60.3414 64.6628 60.1753 64.7953C60.0092 64.9278 59.8031 65 59.5906 65H57.5V66.875H59.5906C59.8031 66.875 60.0092 66.9472 60.1753 67.0797C60.3414 67.2122 60.4575 67.3972 60.5047 67.6044C60.6924 68.4263 61.0179 69.2105 61.4675 69.9237C61.5809 70.1035 61.6298 70.3164 61.6063 70.5277C61.5828 70.7389 61.4883 70.9358 61.3381 71.0863L59.8578 72.5666L61.1834 73.8922L62.6637 72.4119C62.8142 72.2617 63.0111 72.1672 63.2223 72.1437C63.4336 72.1202 63.6465 72.1691 63.8263 72.2825C64.5392 72.7337 65.3234 73.0609 66.1456 73.25C66.352 73.297 66.5364 73.4124 66.6688 73.5775C66.8013 73.7427 66.8739 73.9477 66.875 74.1594V76.25Z" fill="#89D9D0"/>
<path d="M67.8125 71.5625C66.7 71.5625 65.6124 71.2326 64.6874 70.6145C63.7624 69.9964 63.0414 69.1179 62.6157 68.0901C62.1899 67.0623 62.0785 65.9313 62.2956 64.8401C62.5126 63.749 63.0484 62.7467 63.835 61.96C64.6217 61.1734 65.624 60.6376 66.7151 60.4206C67.8063 60.2035 68.9373 60.3149 69.9651 60.7407C70.9929 61.1664 71.8714 61.8874 72.4895 62.8124C73.1076 63.7374 73.4375 64.825 73.4375 65.9375C73.436 67.4289 72.8429 68.8588 71.7883 69.9133C70.7338 70.9679 69.3039 71.561 67.8125 71.5625ZM67.8125 62.1875C67.0708 62.1875 66.3458 62.4074 65.7291 62.8195C65.1124 63.2315 64.6318 63.8172 64.348 64.5024C64.0641 65.1877 63.9899 65.9417 64.1346 66.6691C64.2792 67.3965 64.6364 68.0647 65.1609 68.5892C65.6853 69.1136 66.3535 69.4708 67.0809 69.6154C67.8083 69.7601 68.5623 69.6859 69.2476 69.4021C69.9328 69.1182 70.5185 68.6376 70.9305 68.0209C71.3426 67.4042 71.5625 66.6792 71.5625 65.9375C71.5625 64.9429 71.1674 63.9891 70.4641 63.2859C69.7609 62.5826 68.8071 62.1875 67.8125 62.1875ZM50 70.625H28.4375C28.1889 70.625 27.9504 70.5262 27.7746 70.3504C27.5988 70.1746 27.5 69.9361 27.5 69.6875V64.0625H29.375V68.75H50V70.625Z" fill="#89D9D0"/>
</svg>
